<?xml version="1.0" encoding="UTF-8"?>
<svg xmlns="http://www.w3.org/2000/svg" version="1.1" xmlns:xlink="http://www.w3.org/1999/xlink" viewBox="0 0 30 10.6">
  <defs>
    <style>
      .cls-1, .cls-2 {
        fill: #bd202e;
      }

      .cls-3 {
        fill: url(#_未命名的渐变_8);
      }

      .cls-4 {
        fill: url(#_未命名的渐变_5);
      }

      .cls-5 {
        fill: #f4513c;
      }

      .cls-6 {
        fill: #cb2533;
      }

      .cls-7 {
        fill: #fff;
      }

      .cls-8 {
        fill: none;
      }

      .cls-9 {
        fill: url(#_未命名的渐变_9);
      }

      .cls-2 {
        isolation: isolate;
        opacity: .3;
      }

      .cls-10 {
        fill: url(#_未命名的渐变_6);
      }

      .cls-11 {
        fill: url(#_未命名的渐变_7);
      }

      .cls-12 {
        fill: url(#_未命名的渐变_3);
      }

      .cls-13 {
        fill: url(#_未命名的渐变);
      }

      .cls-14 {
        fill: #e55c4b;
      }

      .cls-15 {
        fill: url(#_未命名的渐变_4);
      }

      .cls-16 {
        fill: #e74047;
      }

      .cls-17 {
        fill: url(#_未命名的渐变_10);
      }

      .cls-18 {
        fill: url(#_未命名的渐变_2);
      }
    </style>
    <linearGradient id="_未命名的渐变" data-name="未命名的渐变" x1="9.2" y1="5.8" x2="28.8" y2="5.8" gradientTransform="translate(0 13.4) scale(1 -1)" gradientUnits="userSpaceOnUse">
      <stop offset="0" stop-color="#e4233e"/>
      <stop offset=".4" stop-color="#e54f41"/>
      <stop offset="1" stop-color="#e99946"/>
    </linearGradient>
    <linearGradient id="_未命名的渐变_2" data-name="未命名的渐变 2" x1="-8605.1" y1="872" x2="-8592.2" y2="856.9" gradientTransform="translate(1247.7 -1208.3) rotate(-50.2) scale(.2 -.2)" gradientUnits="userSpaceOnUse">
      <stop offset="0" stop-color="#f59723"/>
      <stop offset=".3" stop-color="#f69822"/>
      <stop offset=".8" stop-color="#e87726"/>
    </linearGradient>
    <linearGradient id="_未命名的渐变_3" data-name="未命名的渐变 3" x1="-8695.1" y1="881.8" x2="-8602.9" y2="881.8" gradientTransform="translate(1247.7 -1208.3) rotate(-50.2) scale(.2 -.2)" gradientUnits="userSpaceOnUse">
      <stop offset=".3" stop-color="#9c2063"/>
      <stop offset=".6" stop-color="#c82037"/>
      <stop offset=".8" stop-color="#cc2135"/>
      <stop offset="1" stop-color="#e87726"/>
    </linearGradient>
    <linearGradient id="_未命名的渐变_4" data-name="未命名的渐变 4" x1="-8695.6" y1="873.4" x2="-8603.4" y2="873.4" gradientTransform="translate(1247.7 -1208.3) rotate(-50.2) scale(.2 -.2)" gradientUnits="userSpaceOnUse">
      <stop offset=".3" stop-color="#9c2063"/>
      <stop offset=".6" stop-color="#c82037"/>
      <stop offset=".8" stop-color="#cc2135"/>
      <stop offset="1" stop-color="#e87726"/>
    </linearGradient>
    <linearGradient id="_未命名的渐变_5" data-name="未命名的渐变 5" x1="-8689.9" y1="870.1" x2="-8597.7" y2="870.1" gradientTransform="translate(1247.7 -1208.3) rotate(-50.2) scale(.2 -.2)" gradientUnits="userSpaceOnUse">
      <stop offset=".3" stop-color="#9c2063"/>
      <stop offset=".6" stop-color="#c82037"/>
      <stop offset=".8" stop-color="#cc2135"/>
      <stop offset="1" stop-color="#e87726"/>
    </linearGradient>
    <linearGradient id="_未命名的渐变_6" data-name="未命名的渐变 6" x1="-8689.9" y1="870.4" x2="-8597.7" y2="870.4" gradientTransform="translate(1247.7 -1208.3) rotate(-50.2) scale(.2 -.2)" gradientUnits="userSpaceOnUse">
      <stop offset=".3" stop-color="#9c2063"/>
      <stop offset=".6" stop-color="#c82037"/>
      <stop offset=".8" stop-color="#cc2135"/>
      <stop offset="1" stop-color="#e87726"/>
    </linearGradient>
    <linearGradient id="_未命名的渐变_7" data-name="未命名的渐变 7" x1="-8638.1" y1="870.5" x2="-8626.7" y2="870.5" gradientTransform="translate(1247.7 -1208.3) rotate(-50.2) scale(.2 -.2)" gradientUnits="userSpaceOnUse">
      <stop offset=".3" stop-color="#9c2063"/>
      <stop offset=".6" stop-color="#c82037"/>
      <stop offset=".8" stop-color="#cc2135"/>
      <stop offset="1" stop-color="#e87726"/>
    </linearGradient>
    <linearGradient id="_未命名的渐变_8" data-name="未命名的渐变 8" x1="1.2" y1="3.9" x2="1.7" y2="3.9" gradientTransform="translate(0 13.4) scale(1 -1)" gradientUnits="userSpaceOnUse">
      <stop offset="0" stop-color="#282661"/>
      <stop offset="0" stop-color="#662e8c"/>
      <stop offset=".8" stop-color="#9e2064"/>
      <stop offset=".9" stop-color="#cc2032"/>
    </linearGradient>
    <linearGradient id="_未命名的渐变_9" data-name="未命名的渐变 9" x1="-2.4" y1="6.7" x2="8.5" y2="6.7" gradientTransform="translate(0 13.4) scale(1 -1)" gradientUnits="userSpaceOnUse">
      <stop offset=".3" stop-color="#9c2063"/>
      <stop offset=".6" stop-color="#c82037"/>
      <stop offset=".8" stop-color="#cc2135"/>
      <stop offset="1" stop-color="#e87726"/>
    </linearGradient>
    <linearGradient id="_未命名的渐变_10" data-name="未命名的渐变 10" x1="-2" y1="5.9" x2="11.4" y2="5.9" gradientTransform="translate(0 13.4) scale(1 -1)" gradientUnits="userSpaceOnUse">
      <stop offset=".3" stop-color="#9c2063"/>
      <stop offset=".6" stop-color="#c82037"/>
      <stop offset=".8" stop-color="#cc2135"/>
      <stop offset="1" stop-color="#e87726"/>
    </linearGradient>
  </defs>
  <!-- Generator: Adobe Illustrator 28.7.1, SVG Export Plug-In . SVG Version: 1.2.0 Build 142)  -->
  <g>
    <g id="_图层_1">
      <g>
        <path class="cls-6" d="M.5,4.8v5.6h29v-5.6H.5ZM29.1,10H.9v-4.9h28.2v4.9Z"/>
        <g>
          <path class="cls-5" d="M15.6,6.5c0,0-.2,0-.3,0h-.7v1.1h.7c.1,0,.2,0,.3,0s.2-.1.2-.2c0,0,0-.2,0-.3s0-.2,0-.3c0,0-.1-.2-.2-.2h0Z"/>
          <polygon class="cls-16" points="12 8 13.1 8 12.5 6.7 12 8"/>
          <polygon class="cls-14" points="17 8 18.1 8 17.5 6.7 17 8"/>
          <path class="cls-13" d="M9.2,5.4v4.4h19.6v-4.4H9.2ZM13.5,9l-.3-.7h-1.3l-.3.7h-.3l1.1-2.8h.2l1.1,2.8h-.3ZM16.1,7.5c0,.1-.2.2-.3.3-.1,0-.3.1-.5.1h-.7v1.1h-.3v-2.8h1c.2,0,.3,0,.5.1.1,0,.2.2.3.3,0,.1.1.3.1.4s0,.3-.1.4h0ZM18.4,9l-.3-.7h-1.3l-.3.7h-.3l1.1-2.8h.2l1.1,2.8h-.3ZM21.1,8.9c-.2,0-.4.1-.6.1s-.4,0-.6-.1-.3-.2-.4-.3c-.1-.1-.2-.3-.3-.5s-.1-.4-.1-.6,0-.4.1-.6c0-.2.2-.3.3-.5.1-.1.3-.2.4-.3s.4-.1.6-.1.4,0,.6.1c.2,0,.3.2.4.3l-.2.2c0-.1-.2-.2-.3-.3s-.3,0-.5,0-.3,0-.4,0c-.1,0-.2.1-.3.2s-.2.2-.2.4,0,.3,0,.5,0,.3,0,.5c0,.1.1.3.2.4s.2.2.3.2.3,0,.4,0,.3,0,.5,0c.1,0,.3-.1.4-.3l.2.2c-.1.1-.3.2-.4.3h0ZM24.2,9h-.3v-1.3h-1.5v1.3h-.3v-2.8h.3v1.2h1.5v-1.2h.3v2.8ZM26.8,9h-1.8v-2.8h1.8v.3h-1.5v1h1.4v.3h-1.4v1h1.5v.3h0Z"/>
        </g>
        <path class="cls-7" d="M11.3,1s-.3-.9-1-.7c-.3,0-.9.4-1.7,1h0c0,0-.1,0-.2.1-.2.1-.4.3-.6.5-.2.2-.5.4-.7.6-.2.2-.5.4-.7.6-.2.2-.4.4-.6.6h0s0,0,0,0c0,0,0,0,0,0-.2.2-.4.4-.7.7-.2.2-.4.5-.7.7-.2.2-.4.4-.6.6,0,0,0,0-.1.1-.2.3-.4.5-.6.8-.2.3-.4.5-.6.8-.1.2-.2.3-.3.5,0,.1-.2.3-.3.4-.2.3-.4.6-.5,1h0s0,0,0,0c0,.2-.2.3-.2.5h4.3c0,0,.1-.1.2-.2.2-.2.5-.5.7-.8.2-.3.4-.6.6-.9-.2,0-.4,0-.6,0,0,0,0,0,0,0,0,0,0,0,0,0,0,0-.1,0-.2,0h0,0c.7,0,1.2-.4,1.6-.9-.2,0-.5.1-.8.1,0,0,0,0-.1,0,0,0,0,0,0,0h0s0,0,0,0c0,0,0,0,.1,0,0,0-.1,0-.2,0,.2,0,.4,0,.6-.2,0,0,0,0,.1,0,0,0,.1,0,.2,0,0,0,0,0,.1,0,0,0,.2-.1.2-.2,0,0,0,0,0,0,0,0,0,0,0,0,.1-.1.2-.3.3-.4,0,0,0-.1.1-.2,0,0,0,0,0,0,0,0,0-.1,0-.2,0,0,0-.1,0-.2,0,0,0,0,0,0-.2,0-.5,0-.8,0h0s0,0,0,0h0s0,0,0,0c0,0,0,0,0,0,0,0,0,0,0,0h0,0c.6-.1.8-.3,1.1-.5,0,0,.2-.1.2-.2.2-.2.5-.5.7-.7.2-.2.4-.5.6-.7.1-.1.2-.3.3-.4,0-.1.1-.2.2-.3h0c.5-1,.2-1.7.2-1.7h0Z"/>
        <g>
          <path id="path3178" class="cls-18" d="M10.3.2c-.3,0-.9.4-1.7,1l.3,1.1c.5-.4,1-.8,1.5-1.1,0,0,0,0,0,0,0,0,0,0,0,0-.2,0-.6.4-1.4,1.1.5.1,1.4.2,2.1.3.5-1,.2-1.7.2-1.7,0,0-.3-.9-1-.7h0Z"/>
          <path id="path3180" class="cls-8" d="M8,5.5h0,0s0,0,0,0c0,0,0,0,0,0h0Z"/>
          <path id="path3182" class="cls-8" d="M7,7.1s0,0-.1,0c0,0,0,0,.1,0Z"/>
          <path id="path3188" class="cls-1" d="M6.4,7.9c0,0-.1,0-.2,0h0s0,0,.1,0c0,0,0,0,.1,0h0Z"/>
          <path id="path3190" class="cls-2" d="M6.4,7.9c0,0-.1,0-.2,0h0s0,0,.1,0c0,0,0,0,.1,0h0Z"/>
          <path id="path3192" class="cls-1" d="M6.8,7.1s0,0,0,0,0,0,0,0c0,0,0,0,0,0,0,0,0,0,.1,0,0,0-.1,0-.2,0h0Z"/>
          <path id="path3194" class="cls-2" d="M6.8,7.1s0,0,0,0,0,0,0,0c0,0,0,0,0,0,0,0,0,0,.1,0,0,0-.1,0-.2,0h0Z"/>
          <path id="path3205" class="cls-12" d="M6.7,4.4c.2-.3.5-.5.7-.7.2-.2.5-.5.7-.7,0,0,0,0,0,0,.2-.2.5-.4.7-.6l-.3-1.1c0,0-.1,0-.2.1-.2.1-.4.3-.6.5-.2.2-.5.4-.7.6-.2.2-.5.4-.7.6-.2.2-.4.4-.6.6h0s.3,1.5.3,1.5c.2-.2.4-.5.7-.7h0Z"/>
          <path id="path3260" class="cls-15" d="M9,2.3c-.2.2-.4.4-.7.7,0,0,0,0,0,0-.2.2-.5.5-.7.7-.2.2-.4.5-.7.7-.2.2-.4.5-.7.7l1.7.3c.6,0,.8-.2,1.1-.5,0,0,.2-.1.2-.2.2-.2.5-.5.7-.7.2-.2.4-.5.6-.7.1-.1.2-.3.3-.4,0-.1.1-.2.2-.3-.7,0-1.5-.2-2.1-.3h0Z"/>
          <path id="path3262" class="cls-1" d="M6.3,7.9s0,0-.1,0h0s0,0,.1,0Z"/>
          <path id="path3264" class="cls-2" d="M6.3,7.9s0,0-.1,0h0s0,0,.1,0Z"/>
          <path id="path3275" class="cls-4" d="M6.3,7.9s0,0-.1,0h0s0,0,.1,0Z"/>
          <path id="path3277" class="cls-1" d="M6.8,7.1s0,0,0,0c0,0,0,0,0,0Z"/>
          <path id="path3279" class="cls-2" d="M6.8,7.1s0,0,0,0c0,0,0,0,0,0Z"/>
          <path id="path3290" class="cls-10" d="M6.8,7.1s0,0,0,0c0,0,0,0,0,0Z"/>
          <path id="path3292" class="cls-1" d="M6.8,7.1s0,0,0,0h0s0,0,0,0Z"/>
          <path id="path3294" class="cls-2" d="M6.8,7.1s0,0,0,0h0s0,0,0,0Z"/>
          <path id="path3305" class="cls-11" d="M6.8,7.1s0,0,0,0h0s0,0,0,0Z"/>
          <path class="cls-3" d="M1.5,9.8v-.6c-.1,0-.1,0-.1,0,0,.2-.2.3-.2.5,0,0,.4,0,.4,0Z"/>
          <path class="cls-9" d="M2.4,9.8c.2-.2.3-.5.5-.7.2-.3.4-.5.6-.8.2-.3.4-.5.6-.8.2-.3.4-.5.6-.8.2-.3.4-.5.6-.8,0,0,.2-.2.2-.3.1-.2.3-.3.4-.5,0,0,0,0,0,0l-.3-1.5s0,0,0,0c-.2.2-.4.4-.7.7-.2.2-.4.5-.7.7-.2.2-.4.4-.6.6,0,0,0,0-.1.1-.2.3-.4.5-.6.8-.2.3-.4.5-.6.8-.1.2-.2.3-.3.5,0,.1-.2.3-.3.4-.2.3-.4.6-.5,1v.6h1,0Z"/>
          <path class="cls-8" d="M2.6,9.8c.1-.2.3-.4.4-.5.2-.3.4-.6.6-.8.2-.3.4-.5.6-.8.2-.3.4-.5.6-.8.2-.2.3-.4.5-.6,0,0,.1-.1.2-.2.1-.1.2-.2.3-.4,0-.1.2-.2.3-.3,0,0,0,0,0-.1,0,0,0,0,0,0h0s0-.1,0-.1c0,0,0,0,0,0-.1.2-.3.3-.4.5,0,0-.2.2-.2.3-.2.3-.4.5-.6.8-.2.3-.4.5-.6.8-.2.3-.4.5-.6.8-.2.3-.4.5-.6.8-.2.2-.4.5-.5.7h.2,0Z"/>
          <path class="cls-17" d="M5.5,9.8c0,0,.1-.1.2-.2.2-.2.5-.5.7-.8.2-.3.4-.6.6-.9-.2,0-.4,0-.6,0,0,0,0,0-.1,0s0,0-.1,0h0c.7,0,1.2-.4,1.6-.9-.2,0-.5.1-.8.1,0,0,0,0-.1,0,0,0,0,0,0,0,.2,0,.4,0,.6-.2,0,0,0,0,.1,0,0,0,.1,0,.2,0,0,0,0,0,.1,0,0,0,.2-.1.2-.2,0,0,0,0,0,0,0,0,0,0,0,0,.1-.1.2-.3.3-.4,0,0,0-.1.1-.2,0,0,0,0,0,0,0,0,0-.1,0-.2,0,0,0-.1,0-.2,0,0,0,0,0,0-.2,0-.5,0-.8,0h0s0,0,0,0c0,0,0,0,0,0l-1.7-.3s0,0,0,0c0,0,0,0,0,.1,0,.1-.2.2-.3.3-.1.1-.2.2-.3.4,0,0-.1.1-.2.2-.2.2-.3.4-.5.6-.2.3-.4.5-.6.8-.2.3-.4.5-.6.8-.2.3-.4.5-.6.8-.1.2-.3.3-.4.5h2.8,0Z"/>
        </g>
      </g>
    </g>
  </g>
</svg>