<?xml version="1.0" encoding="UTF-8"?>
<svg id="_图层_1" data-name="图层_1" xmlns="http://www.w3.org/2000/svg" xmlns:xlink="http://www.w3.org/1999/xlink" viewBox="0 0 292.58 103.15">
  <defs>
    <style>
      .cls-1 {
        fill: url(#_未命名的渐变_10-6);
      }

      .cls-2, .cls-3 {
        fill: #bd202e;
      }

      .cls-4 {
        fill: url(#_未命名的渐变_5);
      }

      .cls-5 {
        fill: #f4513c;
      }

      .cls-6 {
        fill: #fff;
      }

      .cls-7 {
        fill: url(#_未命名的渐变_10-3);
      }

      .cls-8 {
        fill: none;
      }

      .cls-9 {
        fill: #cb2533;
        stroke: #cb2533;
        stroke-miterlimit: 10;
        stroke-width: 2px;
      }

      .cls-3 {
        isolation: isolate;
        opacity: .35;
      }

      .cls-10 {
        fill: #e55c4b;
      }

      .cls-11 {
        fill: url(#_未命名的渐变_10-4);
      }

      .cls-12 {
        fill: url(#_未命名的渐变_19);
      }

      .cls-13 {
        fill: url(#_未命名的渐变_10-7);
      }

      .cls-14 {
        fill: url(#_未命名的渐变_10-2);
      }

      .cls-15 {
        fill: url(#_未命名的渐变_10-5);
      }

      .cls-16 {
        fill: #e74047;
      }

      .cls-17 {
        fill: url(#_未命名的渐变_10);
      }

      .cls-18 {
        fill: url(#_未命名的渐变_2);
      }
    </style>
    <linearGradient id="_未命名的渐变_19" data-name="未命名的渐变 19" x1="88.48" y1="74.18" x2="284.75" y2="74.18" gradientUnits="userSpaceOnUse">
      <stop offset="0" stop-color="#e4233e"/>
      <stop offset=".4" stop-color="#e54f41"/>
      <stop offset="1" stop-color="#e99946"/>
    </linearGradient>
    <linearGradient id="_未命名的渐变_2" data-name="未命名的渐变 2" x1="-7851.21" y1="-1973.06" x2="-7721.69" y2="-1821.61" gradientTransform="translate(1416.82 -955.81) rotate(-50.16) scale(.2)" gradientUnits="userSpaceOnUse">
      <stop offset="0" stop-color="#f59723"/>
      <stop offset=".31" stop-color="#f69822"/>
      <stop offset=".84" stop-color="#e87726"/>
    </linearGradient>
    <linearGradient id="_未命名的渐变_10" data-name="未命名的渐变 10" x1="-8809.83" y1="-1989.65" x2="-7885.78" y2="-1989.65" gradientTransform="translate(1416.82 -955.81) rotate(-50.16) scale(.2)" gradientUnits="userSpaceOnUse">
      <stop offset=".32" stop-color="#9c2063"/>
      <stop offset=".63" stop-color="#c82037"/>
      <stop offset=".75" stop-color="#cc2135"/>
      <stop offset="1" stop-color="#e87726"/>
    </linearGradient>
    <linearGradient id="_未命名的渐变_10-2" data-name="未命名的渐变 10" x1="-8815.26" y1="-1907.43" x2="-7891.2" y2="-1907.43" xlink:href="#_未命名的渐变_10"/>
    <linearGradient id="_未命名的渐变_10-3" data-name="未命名的渐变 10" x1="-8757.94" y1="-1874.27" x2="-7833.88" y2="-1874.27" xlink:href="#_未命名的渐变_10"/>
    <linearGradient id="_未命名的渐变_10-4" data-name="未命名的渐变 10" x1="-8757.94" y1="-1877.45" x2="-7833.88" y2="-1877.45" xlink:href="#_未命名的渐变_10"/>
    <linearGradient id="_未命名的渐变_10-5" data-name="未命名的渐变 10" x1="-8238.81" y1="-1878.13" x2="-8034.57" y2="-1878.13" xlink:href="#_未命名的渐变_10"/>
    <linearGradient id="_未命名的渐变_5" data-name="未命名的渐变 5" x1="7.82" y1="93.26" x2="12.76" y2="93.26" gradientUnits="userSpaceOnUse">
      <stop offset="0" stop-color="#282661"/>
      <stop offset=".1" stop-color="#662e8c"/>
      <stop offset=".79" stop-color="#9e2064"/>
      <stop offset=".95" stop-color="#cc2032"/>
    </linearGradient>
    <linearGradient id="_未命名的渐变_10-6" data-name="未命名的渐变 10" x1="-28.55" y1="65.22" x2="81.18" y2="65.22" gradientTransform="matrix(1,0,0,1,0,0)" xlink:href="#_未命名的渐变_10"/>
    <linearGradient id="_未命名的渐变_10-7" data-name="未命名的渐变 10" x1="-24.4" y1="73.34" x2="110.48" y2="73.34" gradientTransform="matrix(1,0,0,1,0,0)" xlink:href="#_未命名的渐变_10"/>
  </defs>
  <path class="cls-9" d="M1,46.21v55.93h290.58v-55.93H1ZM289.61,100.11H2.97v-51.86h286.64v51.86Z"/>
  <g>
    <path class="cls-5" d="M152.39,63.52c-.91-.46-1.95-.69-3.11-.69h-7.16v11.47h7.16c1.17,0,2.2-.23,3.11-.69.91-.46,1.62-1.12,2.14-1.97.51-.85.77-1.88.77-3.07s-.26-2.22-.77-3.07c-.52-.85-1.23-1.51-2.14-1.97Z"/>
    <polygon class="cls-16" points="116.17 78.29 126.87 78.29 121.55 64.95 116.17 78.29"/>
    <polygon class="cls-10" points="166.16 78.29 176.86 78.29 171.54 64.95 166.16 78.29"/>
    <path class="cls-12" d="M88.48,52.31v43.73h196.27v-43.73H88.48ZM130.81,88.17l-2.9-7.28h-12.79l-2.94,7.28h-3.17l11.43-27.99h2.28l11.35,27.99h-3.25ZM157.19,73c-.77,1.25-1.82,2.22-3.15,2.91-1.33.69-2.83,1.04-4.52,1.04h-7.4v11.23h-3.01v-27.99h10.41c1.68,0,3.19.35,4.52,1.04,1.33.69,2.38,1.67,3.15,2.93.77,1.26,1.16,2.73,1.16,4.41s-.39,3.19-1.16,4.43ZM180.8,88.17l-2.9-7.28h-12.79l-2.94,7.28h-3.17l11.43-27.99h2.28l11.35,27.99h-3.25ZM207.63,87.44c-1.75.76-3.7,1.14-5.84,1.14-2.01,0-3.86-.37-5.57-1.1s-3.2-1.76-4.47-3.09c-1.28-1.33-2.26-2.87-2.97-4.62-.71-1.75-1.06-3.63-1.06-5.63s.35-3.88,1.04-5.63c.69-1.75,1.67-3.27,2.95-4.58,1.27-1.3,2.76-2.32,4.45-3.05,1.69-.73,3.55-1.1,5.55-1.1,2.14,0,4.06.38,5.76,1.14,1.69.76,3.18,1.8,4.45,3.13l-2.07,2.07c-.95-1.08-2.12-1.93-3.5-2.54-1.38-.61-2.93-.92-4.64-.92-1.57,0-3.02.28-4.33.85-1.32.57-2.47,1.37-3.46,2.4-.99,1.03-1.75,2.25-2.28,3.66-.53,1.41-.79,2.93-.79,4.56s.27,3.19.81,4.6c.54,1.41,1.3,2.64,2.28,3.68.98,1.04,2.13,1.85,3.46,2.42,1.33.57,2.78.85,4.35.85,1.79,0,3.38-.31,4.78-.94,1.4-.62,2.57-1.48,3.52-2.56l2.07,2.07c-1.25,1.36-2.75,2.41-4.49,3.17ZM238.64,88.17h-3.01v-13.06h-15.34v13.06h-3.01v-27.99h3.01v12.16h15.34v-12.16h3.01v27.99ZM264.23,88.17h-18.47v-27.99h18.22v2.73h-15.21v9.6h14.16v2.64h-14.16v10.29h15.46v2.73Z"/>
  </g>
  <path class="cls-6" d="M108.88,7.71s-2.83-9.34-9.56-7.45c-3.27.92-9.22,4.4-16.62,9.76h-.01c-.51.37-1.02.75-1.55,1.15-1.98,1.46-4.04,3.03-6.18,4.73-2.41,1.9-4.91,3.96-7.48,6.14-2.36,2.01-4.79,4.12-7.26,6.33-2.09,1.88-4.19,3.82-6.31,5.83-.07.07-.15.15-.23.23v-.02c-.16.15-.32.31-.48.44-2.24,2.14-4.48,4.33-6.71,6.59-2.26,2.28-4.49,4.62-6.71,7.01-1.86,2.02-3.71,4.05-5.54,6.13-.37.42-.73.85-1.09,1.26-2.26,2.63-4.34,5.16-6.28,7.65-2.19,2.8-4.18,5.51-5.97,8.1-1.19,1.7-2.28,3.36-3.32,4.95-.86,1.37-1.7,2.75-2.53,4.13-1.93,3.24-3.72,6.51-5.35,9.8v.02c-.05.13-.12.27-.19.41-.84,1.71-1.62,3.43-2.36,5.15h43.46c.69-.65,1.38-1.31,2.06-2.01,2.34-2.4,4.69-5.15,7.05-8.24,2.05-2.7,4.13-5.68,6.23-8.93-1.7.39-3.55.52-5.53.42-.25-.01-.5-.03-.75-.05.25.01.5.03.75.04-.69-.06-1.39-.11-2.12-.18,0,0,0,0,0,0,0,0-.02,0-.03,0,0,0,.01,0,.01,0,6.66-.72,11.65-4.2,15.87-8.96-1.87.66-4.83,1.4-8.11,1.25-.44-.02-.89-.06-1.35-.1-.1-.02-.2-.02-.3-.03.01,0,.02,0,.03,0,.09.01.19.02.28.03.45.05.9.09,1.35.1-.52-.04-1.04-.09-1.59-.13,2.3-.32,4.3-.84,6.11-1.58.4-.16.79-.33,1.15-.52.58-.28,1.13-.59,1.68-.92.35-.22.69-.44,1.03-.68.8-.56,1.56-1.18,2.3-1.88.23-.22.46-.43.68-.66.31-.33.6-.67.88-.98,1.29-1.46,2.37-2.81,3.26-3.99.45-.6.84-1.14,1.2-1.67.14-.21.28-.41.41-.61.39-.58.7-1.1.97-1.56.41-.7.69-1.26.87-1.67-.25.1-.52.21-.84.29-2.11.61-5.5.76-8.15.56-.03,0-.08,0-.12,0-.27-.03-.52-.05-.79-.09l.14-.03h.01s-.08.02-.11.03c.25.01.53.04.78.07.03,0,.08,0,.12,0l-.75-.11c5.55-.97,8.3-2.43,11.23-4.85.78-.67,1.59-1.37,2.39-2.12,2.47-2.27,4.98-4.82,7.31-7.4,2.25-2.5,4.31-5.01,5.99-7.33,1.07-1.47,1.98-2.85,2.69-4.11.62-1.09,1.16-2.15,1.63-3.17,0,0,0,0,.01,0,4.91-10.51,2.33-16.59,2.33-16.59ZM93.06,22.71"/>
  <g>
    <path id="path3178" class="cls-18" d="M99.32.25c-3.27.92-9.22,4.4-16.62,9.76l2.56,11.08c4.98-4.2,9.89-7.89,14.64-10.88.37-.24.55-.35.55-.35-.17.11-.37.24-.55.35-1.55,1-6.31,4.28-14.03,11.25,5.35,1.14,13.75,2.21,20.67,2.83,4.91-10.51,2.33-16.59,2.33-16.59,0,0-2.83-9.34-9.56-7.45Z"/>
    <path id="path3180" class="cls-8" d="M75.92,53.38s.08,0,.12,0l-.76-.11s-.09.02-.14.03c.25.01.53.04.78.07h0Z"/>
    <path id="path3182" class="cls-8" d="M66.04,69.39c-.44-.02-.89-.06-1.35-.1.46.04.91.07,1.35.1Z"/>
    <path id="path3188" class="cls-2" d="M60.4,77.28c-.69-.06-1.39-.11-2.12-.18,0,0-.01,0-.01,0,.37.04.73.08,1.08.12.34.01.69.04,1.05.05Z"/>
    <path id="path3190" class="cls-3" d="M60.4,77.28c-.69-.06-1.39-.11-2.12-.18,0,0-.01,0-.01,0,.37.04.73.08,1.08.12.34.01.69.04,1.05.05Z"/>
    <path id="path3192" class="cls-2" d="M64.38,69.24s0,.01,0,0t-.01,0c.11.02.23.03.34.03.45.05.9.09,1.35.1-.55-.04-1.09-.09-1.67-.14Z"/>
    <path id="path3194" class="cls-3" d="M64.38,69.24s0,.01,0,0t-.01,0c.11.02.23.03.34.03.45.05.9.09,1.35.1-.55-.04-1.09-.09-1.67-.14Z"/>
    <path id="path3205" class="cls-17" d="M63.44,42.18c2.34-2.51,4.68-4.95,7.01-7.3,2.43-2.46,4.85-4.8,7.27-7.06.14-.13.29-.27.43-.4,2.38-2.21,4.76-4.33,7.11-6.32l-2.56-11.08c-.51.37-1.02.74-1.55,1.14-1.98,1.46-4.04,3.03-6.18,4.73-2.41,1.9-4.91,3.96-7.48,6.14-2.36,2.01-4.79,4.12-7.26,6.33-2.09,1.88-4.19,3.82-6.31,5.83-.07.07-.15.15-.23.23l3.19,15.01c2.18-2.49,4.38-4.91,6.56-7.25Z"/>
    <path id="path3260" class="cls-14" d="M85.89,21.47c-2.13,1.92-4.47,4.12-7.06,6.64-.13.12-.28.27-.41.39-2.22,2.18-4.59,4.58-7.15,7.24-2.19,2.3-4.5,4.77-6.92,7.44-2.11,2.33-4.31,4.81-6.6,7.45l17.52,2.65c5.57-.97,8.32-2.44,11.26-4.86.78-.67,1.59-1.37,2.39-2.12,2.47-2.27,4.98-4.82,7.31-7.4,2.25-2.5,4.31-5.01,5.99-7.33,1.07-1.47,1.98-2.85,2.69-4.11.62-1.1,1.16-2.16,1.64-3.18-6.9-.61-15.31-1.68-20.65-2.82Z"/>
    <path id="path3262" class="cls-2" d="M59.34,77.2c-.36-.03-.72-.07-1.08-.12h0c.36.06.73.09,1.08.12Z"/>
    <path id="path3264" class="cls-3" d="M59.34,77.2c-.36-.03-.72-.07-1.08-.12h0c.36.06.73.09,1.08.12Z"/>
    <path id="path3275" class="cls-7" d="M59.34,77.2c-.36-.03-.72-.07-1.08-.12h0c.36.06.73.09,1.08.12Z"/>
    <path id="path3277" class="cls-2" d="M64.36,69.24c.11.02.23.03.34.03-.11-.02-.22-.01-.34-.03Z"/>
    <path id="path3279" class="cls-3" d="M64.36,69.24c.11.02.23.03.34.03-.11-.02-.22-.01-.34-.03Z"/>
    <path id="path3290" class="cls-11" d="M64.36,69.24c.11.02.23.03.34.03-.11-.02-.22-.01-.34-.03Z"/>
    <path id="path3292" class="cls-2" d="M64.36,69.24s.01,0,0,0h0s.01,0,0,0Z"/>
    <path id="path3294" class="cls-3" d="M64.36,69.24s.01,0,0,0h0s.01,0,0,0Z"/>
    <path id="path3305" class="cls-15" d="M64.36,69.24s.01,0,0,0h0s.01,0,0,0Z"/>
    <path class="cls-4" d="M10.89,96.04l-1.19-5.58c-.06.13-.13.28-.2.43-.84,1.71-1.62,3.43-2.36,5.15h3.75Z"/>
    <path class="cls-1" d="M19.74,96.04c1.7-2.34,3.44-4.7,5.2-7.07,1.97-2.65,3.97-5.31,6.01-7.96,2.04-2.65,4.11-5.33,6.2-7.98,2.12-2.71,4.28-5.39,6.47-8.06,2.16-2.64,4.33-5.26,6.51-7.82.78-.93,1.59-1.86,2.37-2.77,1.37-1.59,2.75-3.17,4.13-4.72.08-.08.15-.17.22-.25l-3.19-15.01c-.15.15-.32.31-.47.44-2.24,2.14-4.48,4.33-6.71,6.59-2.26,2.28-4.49,4.62-6.71,7.01-1.86,2.02-3.71,4.05-5.54,6.13-.37.42-.73.85-1.09,1.26-2.26,2.63-4.34,5.16-6.28,7.65-2.19,2.8-4.18,5.51-5.97,8.1-1.19,1.7-2.28,3.36-3.32,4.95-.86,1.37-1.7,2.75-2.53,4.13-1.93,3.24-3.72,6.51-5.35,9.8l1.19,5.58h8.87Z"/>
    <path class="cls-8" d="M22.08,96.04c1.3-1.8,2.59-3.58,3.86-5.31,2.08-2.85,4.13-5.6,6.15-8.25,2.11-2.8,4.19-5.5,6.21-8.12,2.12-2.73,4.2-5.36,6.23-7.88,1.65-2.05,3.26-4.03,4.83-5.95.53-.64,1.05-1.27,1.57-1.89,1.03-1.24,2.04-2.45,3.05-3.63.92-1.08,1.83-2.15,2.74-3.2.3-.34.6-.69.9-1.03.05-.05.1-.11.15-.17l-.65-.11-.24-1.12c-.08.08-.15.17-.22.25-1.37,1.57-2.76,3.13-4.13,4.72-.79.93-1.59,1.86-2.37,2.77-2.19,2.58-4.36,5.2-6.51,7.82-2.18,2.67-4.33,5.36-6.47,8.06-2.09,2.66-4.17,5.32-6.2,7.98-2.03,2.66-4.04,5.32-6.01,7.96-1.78,2.38-3.51,4.75-5.22,7.1h2.35Z"/>
    <path class="cls-13" d="M50.6,96.04c.69-.65,1.38-1.31,2.06-2.01,2.34-2.4,4.69-5.15,7.05-8.24,2.05-2.7,4.13-5.68,6.23-8.93-1.7.39-3.55.52-5.53.42-.35-.02-.7-.04-1.06-.07-.36-.03-.72-.07-1.08-.12,0,0,.01,0,.01,0,6.66-.72,11.65-4.2,15.87-8.96-1.87.66-4.83,1.4-8.11,1.25-.44-.02-.89-.06-1.35-.1-.1-.02-.2-.02-.3-.03,2.33-.32,4.35-.84,6.19-1.59.4-.16.79-.33,1.15-.52.58-.28,1.13-.59,1.68-.92.35-.22.69-.44,1.03-.68.8-.56,1.56-1.18,2.3-1.88.23-.22.46-.43.68-.66.31-.33.6-.67.88-.98,1.29-1.46,2.37-2.81,3.26-3.99.45-.6.84-1.14,1.2-1.67.14-.21.28-.41.41-.61.39-.58.7-1.1.97-1.56.41-.7.69-1.26.87-1.67-.25.1-.52.21-.84.29-2.11.61-5.5.76-8.15.56-.03,0-.08,0-.12,0-.27-.03-.52-.05-.79-.09.05,0,.09-.02.14-.03l-17.52-2.65s-.06.11-.11.16c-.3.34-.6.69-.9,1.03-.9,1.04-1.81,2.11-2.74,3.2-1.01,1.18-2.02,2.39-3.05,3.63-.52.62-1.05,1.25-1.57,1.89-1.58,1.91-3.19,3.9-4.83,5.95-2.02,2.51-4.11,5.14-6.23,7.88-2.02,2.61-4.11,5.3-6.21,8.12-2.01,2.66-4.06,5.42-6.15,8.25-1.27,1.72-2.56,3.5-3.86,5.3h28.52Z"/>
  </g>
</svg>